 Ripped by : Badababa

Movie Imformation


Genres:Action | Thriller | Romance
Year :1972
Language : Hindi
IMDb: http://www.imdb.com/title/tt0175450/
Format : MPEG-4
Format profile : Base Media / Version 2
Codec ID : mp42
File size : 798 MiB
Duration : 2h 8mn

Video

Format : AVC
Format/Info : Advanced Video Codec
Duration : 2h 8mn
Bit rate mode : Variable
Bit rate : 800 Kbps
Width : 854 pixels
Height : 480 pixels
Display aspect ratio : 16:9
Frame rate mode : Constant
Frame rate : 25.000 fps
Stream size : 735 MiB (92%)

Audio

Audio Language : Hindi
Format : AAC
Format/Info : Advanced Audio Codec
Format profile : LC
Codec ID : 40
Duration : 2h 8mn
Bit rate mode : Variable
Bit rate : 64.2 Kbps
Maximum bit rate : 122 Kbps
Channel(s) : 2 channels
Channel positions : Front: L R
Sampling rate : 48.0 KHz
Stream size : 59.0 MiB


Storyline


While in Germany, gorgeous looking Rita, who belongs to a gang of thieves, cons a jeweler into parting with a very expensive necklace, and is on the run from the police. She hitches a ride from ace Grand Prix racer, Ram Khanna, and plants the necklace on his person. He later graciously returns the necklace to her, and she in turns it in to her gang-leader. When the gang-leader has the necklace appraised it turns out to be a fake, and Rita is now on the run from her own gang. She again takes shelter with Ram, tells him the truth and that her real name is Meena. Ram wins the Grand Prix, and both return to India. Upon their entry at the airport, they are searched, and Ram is found to be in possession of diamonds hidden in medicinal capsules. He is immediately arrested, tried in Court, and sentenced to several years in prison. Years later he is released, and finds Meena awaiting. Both get married and decide to settle down and live life honestly. But trouble comes knocking on their door ...


Cast

Feroz Khan

Mumtaz

Prem Chopra

Faryal

Iftekhar

Kuljeet

Shyam Kumar

Brahm Bhardwaj

M.B. Shetty



Screens

[img]http://i69.servimg.com/u/f69/13/88/29/14/118.jpg[/img]
[img]http://i69.servimg.com/u/f69/13/88/29/14/214.jpg[/img]
[img]http://i69.servimg.com/u/f69/13/88/29/14/312.jpg[/img]
[img]http://i69.servimg.com/u/f69/13/88/29/14/412.jpg[/img]
[img]http://i69.servimg.com/u/f69/13/88/29/14/511.jpg[/img]
[img]http://i69.servimg.com/u/f69/13/88/29/14/apradh11.jpg[/img]
